# xmcd CD database file
# Copyright (C) 1993-1996 Ti Kan
#
# Track frame offsets:
#  150
#  18887
#  38097
#  58407
#  72220
#  93625
#  102572
#  113062
#  131067
#  140122
#  151957
#  166967
#  178235
#  196500
#  212515
#
# Disc length: 2959 seconds
#
# Revision: 6
# Processed by: cddbd v1.5.2PL0 Copyright (c) Steve Scherf et al.
# Submitted via: Advanced CD Ripper Pro 2.0
#
DISCID=d60b8d0f
DTITLE=REMPOUTSIKA - TO ASTERI KI H EFHH
DYEAR=1998
DGENRE=Meditative
TTITLE0=O mikros prigkipas
TTITLE1=Thalassa apo iliotropia
TTITLE2=Alexandria
TTITLE3=Ta gelia toy Kosmoy
TTITLE4=Apo stigmi se stigmi
TTITLE5=Ligo prin nyhtosei
TTITLE6=Feygaleo vlemma
TTITLE7=Mesa apo sena
TTITLE8=To astepi ki i efhn
TTITLE9=To mystiko tis selinis
TTITLE10=Carousel
TTITLE11=Sine Rex
TTITLE12=Alexandria
TTITLE13=Meta ti vrohi
TTITLE14=To asteri ki i efhi
EXTD=
EXTT0=
EXTT1=
EXTT2=
EXTT3=
EXTT4=
EXTT5=
EXTT6=
EXTT7=
EXTT8=
EXTT9=
EXTT10=
EXTT11=
EXTT12=
EXTT13=
EXTT14=
PLAYORDER=
